<svg width="53" height="55" viewBox="0 0 53 55" fill="none" xmlns="http://www.w3.org/2000/svg">
<path d="M43.6053 19.55V16.4182C43.6053 11.9311 43.6053 9.68755 42.9416 7.89567C41.8747 5.01502 39.6182 2.74277 36.7576 1.66833C34.9782 1 32.7503 1 28.2942 1C20.4963 1 16.5975 1 13.4836 2.16958C8.47742 4.04983 4.52863 8.02626 2.66145 13.0674C1.5 16.2032 1.5 20.1294 1.5 27.9818V34.7273C1.5 42.861 1.5 46.9279 3.59955 49.7523C4.20113 50.5616 4.91453 51.28 5.71813 51.8858C8.52282 54 12.5615 54 20.6387 54H22.5526C25.6311 54 31.7632 54 31.7632 54" stroke="#0153FD" stroke-width="1.5" stroke-linecap="round" stroke-linejoin="round"/>
<path d="M22.5527 33.6832H24.764C26.5051 33.6832 27.3754 33.6832 28.0751 34.1451C28.7746 34.6068 29.1638 35.4383 29.9425 37.1015L34.1317 46.05L39.9212 27.5L44.1104 36.4485C44.8891 38.1117 45.2783 38.9432 45.9777 39.4049C46.6775 39.8668 47.5477 39.8668 49.2888 39.8668H51.5001" stroke="#0153FD" stroke-width="2" stroke-linecap="round" stroke-linejoin="round"/>
<path d="M1.5 27.5C1.5 22.6216 5.42732 18.6667 10.2719 18.6667H13.1959C14.5555 18.6667 15.2353 18.6667 15.7931 18.5162C17.3066 18.1078 18.4888 16.9173 18.8944 15.3931C19.0439 14.8315 19.0439 14.1469 19.0439 12.7778V9.83333C19.0439 4.95481 22.9713 1 27.8158 1" stroke="#0153FD" stroke-width="2" stroke-linecap="round" stroke-linejoin="round"/>
</svg>
