<svg width="50" height="50" viewBox="0 0 50 50" fill="none" xmlns="http://www.w3.org/2000/svg">
<path d="M12.6861 31.2484C11.8978 29.4763 11.4583 27.5049 11.4583 25.4274C11.4583 17.7116 17.5211 11.4568 24.9999 11.4568C32.4789 11.4568 38.5416 17.7116 38.5416 25.4274C38.5416 27.5049 38.102 29.4763 37.3137 31.2484" stroke="#0153FD" stroke-width="2" stroke-linecap="round"/>
<path d="M25 4.16504V6.24837" stroke="#0153FD" stroke-width="2" stroke-linecap="round" stroke-linejoin="round"/>
<path d="M45.8333 24.9983H43.75" stroke="#0153FD" stroke-width="2" stroke-linecap="round" stroke-linejoin="round"/>
<path d="M6.25008 24.9983H4.16675" stroke="#0153FD" stroke-width="2" stroke-linecap="round" stroke-linejoin="round"/>
<path d="M39.73 10.2666L38.2568 11.7397" stroke="#0153FD" stroke-width="2" stroke-linecap="round" stroke-linejoin="round"/>
<path d="M11.7434 11.7417L10.2703 10.2686" stroke="#0153FD" stroke-width="2" stroke-linecap="round" stroke-linejoin="round"/>
<path d="M30.2438 40.2201C32.3488 39.5392 33.193 37.6126 33.4305 35.6746C33.5013 35.0957 33.0251 34.6155 32.4417 34.6155L17.6602 34.6159C17.0568 34.6159 16.5723 35.128 16.6443 35.7269C16.8769 37.6611 17.464 39.074 19.6947 40.2201M30.2438 40.2201C30.2438 40.2201 20.0619 40.2201 19.6947 40.2201M30.2438 40.2201C29.9907 44.2721 28.8205 45.8769 25.0142 45.8319C20.943 45.9071 20.0064 43.9236 19.6947 40.2201" stroke="#0153FD" stroke-width="2" stroke-linecap="round" stroke-linejoin="round"/>
</svg>
