<svg width="51" height="50" viewBox="0 0 51 50" fill="none" xmlns="http://www.w3.org/2000/svg">
<path d="M44.25 23.299V17.2509C44.25 13.8343 44.25 12.1259 43.4081 11.0113C42.5662 9.89678 40.6627 9.35566 36.8556 8.27345C34.2546 7.53408 31.9617 6.6433 30.1298 5.8301C27.6321 4.72137 26.3833 4.16699 25.5 4.16699C24.6167 4.16699 23.3679 4.72137 20.8702 5.8301C19.0383 6.6433 16.7455 7.53408 14.1444 8.27345C10.3374 9.35566 8.43379 9.89678 7.5919 11.0113C6.75 12.1259 6.75 13.8343 6.75 17.2509V23.299C6.75 35.018 17.2974 42.0492 22.5708 44.8324C23.8356 45.4999 24.4679 45.8336 25.5 45.8336C26.5321 45.8336 27.1644 45.4999 28.4292 44.8324C33.7025 42.0492 44.25 35.018 44.25 23.299Z" stroke="#0153FD" stroke-width="2" stroke-linecap="round"/>
<path d="M25.5 14.5835V18.7502" stroke="#0153FD" stroke-width="2" stroke-linecap="round"/>
</svg>
