<svg width="25" height="26" viewBox="0 0 25 26" fill="none" xmlns="http://www.w3.org/2000/svg">
<path d="M15.5482 3.53233L8.61825 6.85888C8.08491 7.11489 7.51503 7.17904 6.93411 7.04889C6.55393 6.96373 6.36381 6.92114 6.21073 6.90367C4.30982 6.68659 3.125 8.19107 3.125 9.92112V10.8706C3.125 12.6006 4.30982 14.1051 6.21073 13.888C6.36381 13.8705 6.55394 13.8279 6.93411 13.7428C7.51503 13.6126 8.08491 13.6768 8.61825 13.9328L15.5482 17.2594C17.139 18.023 17.9344 18.4048 18.8212 18.1072C19.708 17.8096 20.0124 17.1709 20.6212 15.8938C22.2929 12.3867 22.2929 8.40506 20.6212 4.89788C20.0124 3.6207 19.708 2.9821 18.8212 2.68449C17.9344 2.38688 17.139 2.7687 15.5482 3.53233Z" stroke="#020202" stroke-width="1.5" stroke-linecap="round" stroke-linejoin="round"/>
<path d="M11.9355 22.1363L10.382 23.4167C6.88033 20.6395 7.30812 19.3151 7.30812 14.0417H8.48919C8.96848 17.0218 10.099 18.4333 11.659 19.4552C12.62 20.0846 12.8181 21.4088 11.9355 22.1363Z" stroke="#020202" stroke-width="1.5" stroke-linecap="round" stroke-linejoin="round"/>
<path d="M7.8125 13.5208V7.27084" stroke="#020202" stroke-width="1.5" stroke-linecap="round" stroke-linejoin="round"/>
</svg>
