<svg width="85" height="112" viewBox="0 0 85 112" fill="none" xmlns="http://www.w3.org/2000/svg">
<path d="M22.5597 48.9652L25.1928 51.1383L29.3014 47.3199" stroke="#22285D" stroke-width="1.5" stroke-linecap="round" stroke-linejoin="round"/>
<line x1="1.75" y1="111.25" x2="67.0549" y2="111.25" stroke="#222325" stroke-width="1.5" stroke-linecap="round"/>
<line x1="1.75" y1="111.25" x2="67.0549" y2="111.25" stroke="black" stroke-opacity="0.2" stroke-width="1.5" stroke-linecap="round"/>
<g filter="url(#filter0_i_291_103)">
<path fill-rule="evenodd" clip-rule="evenodd" d="M23.7802 62.9978V85.7833H31.4595V64.8755L23.7802 62.9978Z" fill="#0153FD"/>
<path d="M30.6471 57.3035H24.5926C24.1439 57.3035 23.7802 57.6594 23.7802 58.0984V62.9978L31.4595 64.8755V58.0984C31.4595 57.6594 31.0958 57.3035 30.6471 57.3035Z" fill="#222325"/>
<path d="M30.6471 57.3035H24.5926C24.1439 57.3035 23.7802 57.6594 23.7802 58.0984V62.9978L31.4595 64.8755V58.0984C31.4595 57.6594 31.0958 57.3035 30.6471 57.3035Z" fill="black" fill-opacity="0.2"/>
<path d="M17.7348 109.514H27.1268C28.9139 109.514 30.4482 108.455 31.1106 106.944H14.5449C14.8356 108.408 16.1532 109.514 17.7348 109.514Z" fill="#FF6D3B" fill-opacity="0.9"/>
<path d="M22.9678 100.197H20.4428C17.1525 100.197 14.4853 102.807 14.4853 106.026V106.334C14.4853 106.542 14.5058 106.746 14.5449 106.944H31.1106C31.3352 106.431 31.4595 105.867 31.4595 105.274V104.032V100.197V85.7833H23.7802V99.4019C23.7802 99.8409 23.4165 100.197 22.9678 100.197Z" fill="white" fill-opacity="0.9"/>
</g>
<path d="M30.6474 56.5535C31.4947 56.5536 32.2099 57.2299 32.2099 58.0984V105.274C32.2099 105.973 32.063 106.64 31.7978 107.245C31.0172 109.026 29.215 110.263 27.1269 110.263H17.7353C15.8001 110.263 14.1706 108.909 13.8095 107.09C13.7608 106.844 13.7353 106.592 13.7353 106.334V106.026C13.7353 102.377 16.7543 99.447 20.4433 99.447H22.9677C22.9904 99.447 23.0066 99.4381 23.0175 99.4275C23.0279 99.4173 23.0301 99.4092 23.0302 99.4021V58.0984C23.0302 57.2299 23.7453 56.5535 24.5927 56.5535H30.6474Z" stroke="#222325" stroke-width="1.5" stroke-linejoin="round"/>
<path d="M30.6474 56.5535C31.4947 56.5536 32.2099 57.2299 32.2099 58.0984V105.274C32.2099 105.973 32.063 106.64 31.7978 107.245C31.0172 109.026 29.215 110.263 27.1269 110.263H17.7353C15.8001 110.263 14.1706 108.909 13.8095 107.09C13.7608 106.844 13.7353 106.592 13.7353 106.334V106.026C13.7353 102.377 16.7543 99.447 20.4433 99.447H22.9677C22.9904 99.447 23.0066 99.4381 23.0175 99.4275C23.0279 99.4173 23.0301 99.4092 23.0302 99.4021V58.0984C23.0302 57.2299 23.7453 56.5535 24.5927 56.5535H30.6474Z" stroke="black" stroke-opacity="0.2" stroke-width="1.5" stroke-linejoin="round"/>
<g filter="url(#filter1_i_291_103)">
<path fill-rule="evenodd" clip-rule="evenodd" d="M45.7528 65.5977V91.4677H38.1954V64.4422L45.7528 65.5977Z" fill="#0153FD"/>
<path d="M38.9949 57.3035H44.9533C45.3949 57.3035 45.7528 57.6594 45.7528 58.0984V65.5977L38.1954 64.4422V58.0984C38.1954 57.6594 38.5533 57.3035 38.9949 57.3035Z" fill="#222325"/>
<path d="M38.9949 57.3035H44.9533C45.3949 57.3035 45.7528 57.6594 45.7528 58.0984V65.5977L38.1954 64.4422V58.0984C38.1954 57.6594 38.5533 57.3035 38.9949 57.3035Z" fill="black" fill-opacity="0.2"/>
<path d="M51.7022 109.514H42.4593C40.8076 109.514 39.3752 108.58 38.667 107.214H54.7761C54.3922 108.542 53.1613 109.514 51.7022 109.514Z" fill="#FF6D3B" fill-opacity="0.9"/>
<path d="M46.5523 100.197H49.0372C52.2753 100.197 54.9002 102.807 54.9002 106.026V106.334C54.9002 106.639 54.8569 106.935 54.7761 107.214H38.667C38.3656 106.633 38.1954 105.973 38.1954 105.274V104.032V100.197V91.4677H45.7528V99.4019C45.7528 99.8409 46.1108 100.197 46.5523 100.197Z" fill="white" fill-opacity="0.9"/>
</g>
<path d="M38.9949 56.5535C38.1433 56.5535 37.4451 57.2411 37.4451 58.0984V105.274C37.4451 106.096 37.6455 106.874 38.0008 107.559C38.8336 109.165 40.5187 110.263 42.4598 110.263H51.702C53.5014 110.263 55.0219 109.065 55.4969 107.423C55.5971 107.076 55.6502 106.71 55.6502 106.334V106.026C55.6502 102.388 52.6851 99.447 49.0369 99.447H46.5526C46.5212 99.447 46.5029 99.4228 46.5027 99.4021V58.0984C46.5027 57.2411 45.8046 56.5535 44.9529 56.5535H38.9949Z" stroke="#222325" stroke-width="1.5" stroke-linejoin="round"/>
<path d="M38.9949 56.5535C38.1433 56.5535 37.4451 57.2411 37.4451 58.0984V105.274C37.4451 106.096 37.6455 106.874 38.0008 107.559C38.8336 109.165 40.5187 110.263 42.4598 110.263H51.702C53.5014 110.263 55.0219 109.065 55.4969 107.423C55.5971 107.076 55.6502 106.71 55.6502 106.334V106.026C55.6502 102.388 52.6851 99.447 49.0369 99.447H46.5526C46.5212 99.447 46.5029 99.4228 46.5027 99.4021V58.0984C46.5027 57.2411 45.8046 56.5535 44.9529 56.5535H38.9949Z" stroke="black" stroke-opacity="0.2" stroke-width="1.5" stroke-linejoin="round"/>
<path d="M25.305 100.082C27.6038 100.09 29.2876 100.921 29.2876 100.921" stroke="#222325" stroke-width="1.5" stroke-linecap="round"/>
<path d="M25.305 100.082C27.6038 100.09 29.2876 100.921 29.2876 100.921" stroke="black" stroke-opacity="0.2" stroke-width="1.5" stroke-linecap="round"/>
<path d="M44.1099 100.082C41.8111 100.09 40.1273 100.921 40.1273 100.921" stroke="#222325" stroke-width="1.5" stroke-linecap="round"/>
<path d="M44.1099 100.082C41.8111 100.09 40.1273 100.921 40.1273 100.921" stroke="black" stroke-opacity="0.2" stroke-width="1.5" stroke-linecap="round"/>
<path d="M62.1662 32.7471L62.9155 32.7783L62.9149 32.7949C62.9145 32.8056 62.9132 32.8213 62.9123 32.8417C62.9104 32.8828 62.9079 32.9436 62.9038 33.0222C62.8957 33.1795 62.8834 33.4096 62.8646 33.7038C62.8269 34.2929 62.7646 35.1398 62.668 36.1729C62.4749 38.2378 62.142 41.055 61.5832 44.0596C61.0251 47.0608 60.2373 50.2697 59.1285 53.1091C58.0258 55.9327 56.5737 58.476 54.6378 60.0559C51.5269 62.5948 47.5057 64.058 43.1676 63.9001L22.8578 63.161C18.5197 63.0032 14.6145 61.2516 11.6946 58.4932C10.2594 57.1374 9.17267 55.2089 8.34078 53.0493C7.50604 50.8821 6.90829 48.4302 6.47923 45.9779C5.62125 41.0738 5.42525 36.089 5.39205 33.2053C5.37286 31.5374 5.3771 29.8485 5.51068 28.1555C6.54429 15.0556 14.7445 8.2219 21.8048 4.82048C25.5243 3.02852 29.2867 1.78802 32.2958 1.38429C33.7951 1.18315 35.1617 1.18222 36.2595 1.46207C37.3659 1.74416 38.2998 2.3446 38.6988 3.40655C39.048 4.33644 39.0083 5.25233 38.8337 6.08511C38.6631 6.89911 38.3454 7.70511 38.1041 8.37845C37.848 9.09339 37.6782 9.65855 37.6731 10.1423C37.6686 10.5674 37.7904 10.9275 38.194 11.2782C38.3651 11.4268 38.6521 11.5711 39.1025 11.6933C39.547 11.814 40.0972 11.8993 40.7501 11.9634C42.091 12.0949 43.6338 12.1241 45.44 12.2523C48.9327 12.5001 53.0688 13.1042 56.1992 15.6859C59.2347 18.1893 60.9875 20.8717 61.9404 23.7525C62.8876 26.6162 63.029 29.6321 62.9157 32.7744L62.9156 32.7773L62.1662 32.7471Z" fill="#EEEFFC"/>
<path d="M62.1662 32.7471L62.9155 32.7783L62.9149 32.7949C62.9145 32.8056 62.9132 32.8213 62.9123 32.8417C62.9104 32.8828 62.9079 32.9436 62.9038 33.0222C62.8957 33.1795 62.8834 33.4096 62.8646 33.7038C62.8269 34.2929 62.7646 35.1398 62.668 36.1729C62.4749 38.2378 62.142 41.055 61.5832 44.0596C61.0251 47.0608 60.2373 50.2697 59.1285 53.1091C58.0258 55.9327 56.5737 58.476 54.6378 60.0559C51.5269 62.5948 47.5057 64.058 43.1676 63.9001L22.8578 63.161C18.5197 63.0032 14.6145 61.2516 11.6946 58.4932C10.2594 57.1374 9.17267 55.2089 8.34078 53.0493C7.50604 50.8821 6.90829 48.4302 6.47923 45.9779C5.62125 41.0738 5.42525 36.089 5.39205 33.2053C5.37286 31.5374 5.3771 29.8485 5.51068 28.1555C6.54429 15.0556 14.7445 8.2219 21.8048 4.82048C25.5243 3.02852 29.2867 1.78802 32.2958 1.38429C33.7951 1.18315 35.1617 1.18222 36.2595 1.46207C37.3659 1.74416 38.2998 2.3446 38.6988 3.40655C39.048 4.33644 39.0083 5.25233 38.8337 6.08511C38.6631 6.89911 38.3454 7.70511 38.1041 8.37845C37.848 9.09339 37.6782 9.65855 37.6731 10.1423C37.6686 10.5674 37.7904 10.9275 38.194 11.2782C38.3651 11.4268 38.6521 11.5711 39.1025 11.6933C39.547 11.814 40.0972 11.8993 40.7501 11.9634C42.091 12.0949 43.6338 12.1241 45.44 12.2523C48.9327 12.5001 53.0688 13.1042 56.1992 15.6859C59.2347 18.1893 60.9875 20.8717 61.9404 23.7525C62.8876 26.6162 63.029 29.6321 62.9157 32.7744L62.9156 32.7773L62.1662 32.7471Z" stroke="#222325" stroke-width="1.5"/>
<path d="M62.1662 32.7471L62.9155 32.7783L62.9149 32.7949C62.9145 32.8056 62.9132 32.8213 62.9123 32.8417C62.9104 32.8828 62.9079 32.9436 62.9038 33.0222C62.8957 33.1795 62.8834 33.4096 62.8646 33.7038C62.8269 34.2929 62.7646 35.1398 62.668 36.1729C62.4749 38.2378 62.142 41.055 61.5832 44.0596C61.0251 47.0608 60.2373 50.2697 59.1285 53.1091C58.0258 55.9327 56.5737 58.476 54.6378 60.0559C51.5269 62.5948 47.5057 64.058 43.1676 63.9001L22.8578 63.161C18.5197 63.0032 14.6145 61.2516 11.6946 58.4932C10.2594 57.1374 9.17267 55.2089 8.34078 53.0493C7.50604 50.8821 6.90829 48.4302 6.47923 45.9779C5.62125 41.0738 5.42525 36.089 5.39205 33.2053C5.37286 31.5374 5.3771 29.8485 5.51068 28.1555C6.54429 15.0556 14.7445 8.2219 21.8048 4.82048C25.5243 3.02852 29.2867 1.78802 32.2958 1.38429C33.7951 1.18315 35.1617 1.18222 36.2595 1.46207C37.3659 1.74416 38.2998 2.3446 38.6988 3.40655C39.048 4.33644 39.0083 5.25233 38.8337 6.08511C38.6631 6.89911 38.3454 7.70511 38.1041 8.37845C37.848 9.09339 37.6782 9.65855 37.6731 10.1423C37.6686 10.5674 37.7904 10.9275 38.194 11.2782C38.3651 11.4268 38.6521 11.5711 39.1025 11.6933C39.547 11.814 40.0972 11.8993 40.7501 11.9634C42.091 12.0949 43.6338 12.1241 45.44 12.2523C48.9327 12.5001 53.0688 13.1042 56.1992 15.6859C59.2347 18.1893 60.9875 20.8717 61.9404 23.7525C62.8876 26.6162 63.029 29.6321 62.9157 32.7744L62.9156 32.7773L62.1662 32.7471Z" stroke="black" stroke-opacity="0.2" stroke-width="1.5"/>
<mask id="mask0_291_103" style="mask-type:alpha" maskUnits="userSpaceOnUse" x="6" y="1" width="57" height="63">
<path d="M62.1662 32.7468C62.3906 26.5264 61.5889 21.103 55.722 16.2645C49.8552 11.426 40.0356 13.8714 37.7022 11.8439C35.3689 9.81639 39.1267 6.67843 37.997 3.6702C36.8673 0.661981 29.4783 1.95624 22.1305 5.49615C15.22 8.82541 7.26449 15.4678 6.25874 28.2148C6.12793 29.8727 6.12247 31.5336 6.14161 33.1966C6.20757 38.9287 6.92412 52.9546 12.2096 57.9478C15.0018 60.5856 18.735 62.2605 22.8847 62.4115L43.1947 63.1506C47.3444 63.3016 51.1885 61.9024 54.1635 59.4744C61.3131 53.6394 62.1662 32.7468 62.1662 32.7468Z" fill="#AFB6EF"/>
</mask>
<g mask="url(#mask0_291_103)">
<path d="M63.0177 34.3353C63.2389 28.2037 62.7917 21.5041 57.149 16.7398C51.5062 11.9755 39.8175 13.715 36.1816 13.8081C32.5456 13.9012 35.0398 9.22535 33.9549 6.26112C32.8701 3.29689 24.7636 5.24074 18.3809 8.39411C11.9982 11.5475 6.21933 18.3414 5.24062 30.9069C5.11333 32.5413 5.10668 34.1784 5.12371 35.8176C5.1824 41.4676 5.86032 55.2923 10.9433 60.2096C13.6286 62.8073 17.2204 64.4551 21.2143 64.6004L40.762 65.3117C50.0021 65.6479 58.2169 58.3322 60.6608 49.4155C62.6618 42.1147 63.0177 34.3353 63.0177 34.3353Z" fill="#C9CEF4"/>
<path d="M25.7049 20.788C31.2236 20.4566 40.5329 15.3479 49.6249 17.3294C43.4491 23.1597 25.1989 34.8779 17.5608 34.3824C9.92281 33.8868 8.20453 31.2416 8.77458 26.3544C9.34462 21.4672 11.1699 19.7905 15.5967 20.2071C20.0235 20.6237 20.1863 21.1194 25.7049 20.788Z" fill="#5260DD"/>
<g filter="url(#filter2_i_291_103)">
<path d="M60.0746 32.6255C60.0932 26.5441 59.2936 24.3314 56.8793 21.5698C54.4651 18.8081 50.2694 16.1483 43.2707 16.9528C36.2721 17.7574 32.3826 20.0079 29.7366 21.6579C27.0906 23.3079 21.2427 27.4872 15.0844 26.0217C8.92618 24.5563 11.057 20.6568 10.0844 21.979C8.01767 24.7884 7.39458 30.1798 7.64729 35.7741C7.90001 41.3684 8.35065 52.7103 13.7435 57.3977C16.5925 59.8739 20.2624 60.7717 24.3731 60.7717L43.9239 61.2721C48.0346 61.2721 50.7261 60.1347 53.5902 57.6585C60.4735 51.7074 60.0746 32.6255 60.0746 32.6255Z" fill="#0153FD"/>
</g>
</g>
<ellipse cx="1.83828" cy="1.81964" rx="1.83828" ry="1.81964" transform="matrix(0.999339 0.0363655 -0.0360461 0.99935 25.6271 31.0033)" fill="#222325"/>
<ellipse cx="1.83828" cy="1.81964" rx="1.83828" ry="1.81964" transform="matrix(0.999339 0.0363655 -0.0360461 0.99935 25.6271 31.0033)" fill="black" fill-opacity="0.2"/>
<path d="M43.8492 23.3667C49.2091 23.3667 53.5592 27.7279 53.5592 33.1128C53.559 38.4975 49.209 42.8579 43.8492 42.8579C38.4896 42.8577 34.1404 38.4974 34.1403 33.1128C34.1403 27.728 38.4895 23.3669 43.8492 23.3667Z" stroke="#222325" stroke-width="1.5"/>
<path d="M43.8492 23.3667C49.2091 23.3667 53.5592 27.7279 53.5592 33.1128C53.559 38.4975 49.209 42.8579 43.8492 42.8579C38.4896 42.8577 34.1404 38.4974 34.1403 33.1128C34.1403 27.728 38.4895 23.3669 43.8492 23.3667Z" stroke="black" stroke-opacity="0.2" stroke-width="1.5"/>
<ellipse cx="43.1748" cy="32.7738" rx="4.38618" ry="4.74002" fill="#222325"/>
<ellipse cx="43.1748" cy="32.7738" rx="4.38618" ry="4.74002" fill="black" fill-opacity="0.2"/>
<g filter="url(#filter3_i_291_103)">
<path d="M73.3676 39.0449L62.5564 40.293L61.7444 47.8218C61.7444 47.8218 59.3082 48.3537 58.2254 49.9495C57.1427 51.5454 57.8194 53.1412 59.0375 54.471C58.117 59.9233 67.0227 63.9129 71.7934 56.397C75.0463 54.4301 80.8265 50.1586 82.4279 48.4867C84.4297 46.3969 84.6162 42.4104 82.4279 40.293C80.2397 38.1756 73.3676 39.0449 73.3676 39.0449Z" fill="#0153FD"/>
</g>
<path d="M59.5175 52.1406C59.2657 53.1738 59.2144 53.423 59.0375 54.471M73.3676 42.4104L64.3159 48.4867C63.6392 47.5558 61.7444 47.8218 61.7444 47.8218M61.7444 47.8218C61.7444 47.8218 59.3082 48.3537 58.2254 49.9495C57.1427 51.5454 57.8194 53.1412 59.0375 54.471M61.7444 47.8218L62.5564 40.293L73.3676 39.0449C73.3676 39.0449 80.2397 38.1756 82.4279 40.293C84.6162 42.4104 84.4297 46.3969 82.4279 48.4867C80.8265 50.1586 75.0463 54.4301 71.7934 56.397C67.0227 63.9129 58.117 59.9233 59.0375 54.471M62.2846 53.4755C62.1856 52.5909 62.3787 51.1424 63.5027 50.8158" stroke="#222325" stroke-width="1.5" stroke-linecap="round" stroke-linejoin="round"/>
<path d="M59.5175 52.1406C59.2657 53.1738 59.2144 53.423 59.0375 54.471M73.3676 42.4104L64.3159 48.4867C63.6392 47.5558 61.7444 47.8218 61.7444 47.8218M61.7444 47.8218C61.7444 47.8218 59.3082 48.3537 58.2254 49.9495C57.1427 51.5454 57.8194 53.1412 59.0375 54.471M61.7444 47.8218L62.5564 40.293L73.3676 39.0449C73.3676 39.0449 80.2397 38.1756 82.4279 40.293C84.6162 42.4104 84.4297 46.3969 82.4279 48.4867C80.8265 50.1586 75.0463 54.4301 71.7934 56.397C67.0227 63.9129 58.117 59.9233 59.0375 54.471M62.2846 53.4755C62.1856 52.5909 62.3787 51.1424 63.5027 50.8158" stroke="black" stroke-opacity="0.2" stroke-width="1.5" stroke-linecap="round" stroke-linejoin="round"/>
<path d="M51.2722 40.2471L61.9054 51.0892" stroke="#222325" stroke-width="1.5" stroke-linecap="round"/>
<path d="M51.2722 40.2471L61.9054 51.0892" stroke="black" stroke-opacity="0.2" stroke-width="1.5" stroke-linecap="round"/>
<path d="M21.4368 70.6277C20.7815 53.9735 17.7883 47.7246 15.8586 46.6248C16.5765 46.2694 17.3112 45.9485 18.0595 45.6599C17.8947 44.5397 16.3986 42.4529 15.6711 41.5495C16.6418 41.2424 17.5981 40.9606 18.5393 40.7026L16.6406 38.495C25.1823 36.8115 43.2107 34.2285 46.9902 37.3649L46.1849 39.4221C48.5361 39.9828 50.3224 40.6702 51.4724 41.2944L48.209 45.9452C49.5388 46.3356 50.712 46.7337 51.6871 47.1088C44.3348 52.2795 42.9674 64.504 43.2028 69.97L21.4368 70.6277Z" fill="#FABF48"/>
<g filter="url(#filter4_i_291_103)">
<path d="M5.0107 76.1084C-3.05739 72.3095 3.14093 48.2462 5.55532 44.2854C5.87137 48.2982 7.32533 56.7141 11.9546 60.2652C13.7246 58.0799 18.2177 52.207 18.2177 52.207L19.0346 55.3483C20.8935 53.4068 23.8998 54.0016 24.4808 56.441C25.2945 59.8579 22.3186 64.6241 19.9877 67.6405C17.6567 70.6569 11.6822 79.2498 5.0107 76.1084Z" fill="#0153FD"/>
</g>
<path d="M6.37223 66.4113C10.3207 62.1773 11.9546 60.2652 11.9546 60.2652M11.9546 60.2652C13.7246 58.0799 18.2177 52.207 18.2177 52.207L19.0346 55.3483C20.8935 53.4068 23.8998 54.0016 24.4808 56.441C25.2945 59.8579 22.3186 64.6241 19.9877 67.6405C17.6567 70.6569 11.6822 79.2498 5.0107 76.1084C-3.05739 72.3095 3.14093 48.2462 5.55532 44.2854C5.87137 48.2982 7.32533 56.7141 11.9546 60.2652Z" stroke="#222325" stroke-width="1.5" stroke-linecap="round" stroke-linejoin="round"/>
<path d="M6.37223 66.4113C10.3207 62.1773 11.9546 60.2652 11.9546 60.2652M11.9546 60.2652C13.7246 58.0799 18.2177 52.207 18.2177 52.207L19.0346 55.3483C20.8935 53.4068 23.8998 54.0016 24.4808 56.441C25.2945 59.8579 22.3186 64.6241 19.9877 67.6405C17.6567 70.6569 11.6822 79.2498 5.0107 76.1084C-3.05739 72.3095 3.14093 48.2462 5.55532 44.2854C5.87137 48.2982 7.32533 56.7141 11.9546 60.2652Z" stroke="black" stroke-opacity="0.2" stroke-width="1.5" stroke-linecap="round" stroke-linejoin="round"/>
<ellipse cx="40.4756" cy="30.4038" rx="2.36179" ry="2.37001" fill="white" fill-opacity="0.9"/>
<path d="M20.2426 44.4014C25.5669 42.6779 40.695 41.9662 46.1701 44.6561M20.8853 40.1361C25.7267 38.9913 37.0368 37.2197 43.5466 39.2923" stroke="#222325" stroke-width="1.5" stroke-linecap="round" stroke-linejoin="round"/>
<path d="M20.2426 44.4014C25.5669 42.6779 40.695 41.9662 46.1701 44.6561M20.8853 40.1361C25.7267 38.9913 37.0368 37.2197 43.5466 39.2923" stroke="black" stroke-opacity="0.2" stroke-width="1.5" stroke-linecap="round" stroke-linejoin="round"/>
<line x1="24.6931" y1="86.1956" x2="30.6158" y2="86.1956" stroke="#222325" stroke-width="1.5" stroke-linecap="square"/>
<line x1="24.6931" y1="86.1956" x2="30.6158" y2="86.1956" stroke="black" stroke-opacity="0.2" stroke-width="1.5" stroke-linecap="square"/>
<line x1="14.5711" y1="106.51" x2="30.6159" y2="106.51" stroke="#222325" stroke-width="1.5" stroke-linecap="square"/>
<line x1="14.5711" y1="106.51" x2="30.6159" y2="106.51" stroke="black" stroke-opacity="0.2" stroke-width="1.5" stroke-linecap="square"/>
<line x1="38.8638" y1="91.6128" x2="45.4614" y2="91.6128" stroke="#222325" stroke-width="1.5" stroke-linecap="square"/>
<line x1="38.8638" y1="91.6128" x2="45.4614" y2="91.6128" stroke="black" stroke-opacity="0.2" stroke-width="1.5" stroke-linecap="square"/>
<line x1="38.8638" y1="106.51" x2="54.9085" y2="106.51" stroke="#222325" stroke-width="1.5" stroke-linecap="square"/>
<line x1="38.8638" y1="106.51" x2="54.9085" y2="106.51" stroke="black" stroke-opacity="0.2" stroke-width="1.5" stroke-linecap="square"/>
<defs>
<filter id="filter0_i_291_103" x="9.98526" y="55.8035" width="22.9743" height="58.2101" filterUnits="userSpaceOnUse" color-interpolation-filters="sRGB">
<feFlood flood-opacity="0" result="BackgroundImageFix"/>
<feBlend mode="normal" in="SourceGraphic" in2="BackgroundImageFix" result="shape"/>
<feColorMatrix in="SourceAlpha" type="matrix" values="0 0 0 0 0 0 0 0 0 0 0 0 0 0 0 0 0 0 127 0" result="hardAlpha"/>
<feOffset dx="-13" dy="10"/>
<feGaussianBlur stdDeviation="1.5"/>
<feComposite in2="hardAlpha" operator="arithmetic" k2="-1" k3="1"/>
<feColorMatrix type="matrix" values="0 0 0 0 0.141667 0 0 0 0 0.170204 0 0 0 0 0.425 0 0 0 0.34 0"/>
<feBlend mode="darken" in2="shape" result="effect1_innerShadow_291_103"/>
</filter>
<filter id="filter1_i_291_103" x="33.6954" y="55.8035" width="22.7048" height="58.2101" filterUnits="userSpaceOnUse" color-interpolation-filters="sRGB">
<feFlood flood-opacity="0" result="BackgroundImageFix"/>
<feBlend mode="normal" in="SourceGraphic" in2="BackgroundImageFix" result="shape"/>
<feColorMatrix in="SourceAlpha" type="matrix" values="0 0 0 0 0 0 0 0 0 0 0 0 0 0 0 0 0 0 127 0" result="hardAlpha"/>
<feOffset dx="-13" dy="10"/>
<feGaussianBlur stdDeviation="1.5"/>
<feComposite in2="hardAlpha" operator="arithmetic" k2="-1" k3="1"/>
<feColorMatrix type="matrix" values="0 0 0 0 0.141667 0 0 0 0 0.170204 0 0 0 0 0.425 0 0 0 0.34 0"/>
<feBlend mode="darken" in2="shape" result="effect1_innerShadow_291_103"/>
</filter>
<filter id="filter2_i_291_103" x="4.59421" y="13.8069" width="55.4847" height="47.4652" filterUnits="userSpaceOnUse" color-interpolation-filters="sRGB">
<feFlood flood-opacity="0" result="BackgroundImageFix"/>
<feBlend mode="normal" in="SourceGraphic" in2="BackgroundImageFix" result="shape"/>
<feColorMatrix in="SourceAlpha" type="matrix" values="0 0 0 0 0 0 0 0 0 0 0 0 0 0 0 0 0 0 127 0" result="hardAlpha"/>
<feOffset dx="-5" dy="-17"/>
<feGaussianBlur stdDeviation="1.5"/>
<feComposite in2="hardAlpha" operator="arithmetic" k2="-1" k3="1"/>
<feColorMatrix type="matrix" values="0 0 0 0 0.321569 0 0 0 0 0.376471 0 0 0 0 0.866667 0 0 0 0.6 0"/>
<feBlend mode="normal" in2="shape" result="effect1_innerShadow_291_103"/>
</filter>
<filter id="filter3_i_291_103" x="53.933" y="35.1182" width="30.817" height="26.1689" filterUnits="userSpaceOnUse" color-interpolation-filters="sRGB">
<feFlood flood-opacity="0" result="BackgroundImageFix"/>
<feBlend mode="normal" in="SourceGraphic" in2="BackgroundImageFix" result="shape"/>
<feColorMatrix in="SourceAlpha" type="matrix" values="0 0 0 0 0 0 0 0 0 0 0 0 0 0 0 0 0 0 127 0" result="hardAlpha"/>
<feOffset dx="-5" dy="-17"/>
<feGaussianBlur stdDeviation="1.5"/>
<feComposite in2="hardAlpha" operator="arithmetic" k2="-1" k3="1"/>
<feColorMatrix type="matrix" values="0 0 0 0 0.321569 0 0 0 0 0.376471 0 0 0 0 0.866667 0 0 0 0.6 0"/>
<feBlend mode="normal" in2="shape" result="effect1_innerShadow_291_103"/>
</filter>
<filter id="filter4_i_291_103" x="-2.75" y="40.5354" width="28.1179" height="37.0049" filterUnits="userSpaceOnUse" color-interpolation-filters="sRGB">
<feFlood flood-opacity="0" result="BackgroundImageFix"/>
<feBlend mode="normal" in="SourceGraphic" in2="BackgroundImageFix" result="shape"/>
<feColorMatrix in="SourceAlpha" type="matrix" values="0 0 0 0 0 0 0 0 0 0 0 0 0 0 0 0 0 0 127 0" result="hardAlpha"/>
<feOffset dx="-5" dy="-17"/>
<feGaussianBlur stdDeviation="1.5"/>
<feComposite in2="hardAlpha" operator="arithmetic" k2="-1" k3="1"/>
<feColorMatrix type="matrix" values="0 0 0 0 0.321569 0 0 0 0 0.376471 0 0 0 0 0.866667 0 0 0 0.6 0"/>
<feBlend mode="normal" in2="shape" result="effect1_innerShadow_291_103"/>
</filter>
</defs>
</svg>
