<svg width="30" height="31" viewBox="0 0 30 31" fill="none" xmlns="http://www.w3.org/2000/svg">
<path fill-rule="evenodd" clip-rule="evenodd" d="M16.3333 1.83333V0.5H13.6667V5.84667C12.0132 6.07301 10.4462 6.72241 9.11733 7.732L6.28 4.89333L5.336 3.95067L3.45067 5.836L4.39333 6.78L7.232 9.61733C6.22241 10.9462 5.57301 12.5132 5.34667 14.1667H0V16.8333H5.34667C5.57476 18.4863 6.22398 20.0529 7.232 21.3827L4.39333 24.2213L3.45067 25.164L5.336 27.0493L6.28 26.1067L9.11733 23.268C10.4462 24.2776 12.0132 24.927 13.6667 25.1533V30.5H16.3333V25.1533C17.9863 24.9252 19.5529 24.276 20.8827 23.268L23.7213 26.108L24.664 27.0493L26.5493 25.164L25.6067 24.2213L22.768 21.3827C23.776 20.0529 24.4252 18.4863 24.6533 16.8333H30V14.1667H24.6533C24.427 12.5132 23.7776 10.9462 22.768 9.61733L25.608 6.78L26.5493 5.836L24.664 3.95067L23.7213 4.89333L20.8827 7.73333C19.553 6.72484 17.9864 6.07516 16.3333 5.84667V1.83333ZM20.0227 10.5133L19.9867 10.4787C18.6617 9.16096 16.8687 8.42172 15 8.42267C13.896 8.42267 12.8507 8.676 11.92 9.12667C11.7482 10.4086 11.8744 11.7129 12.2887 12.9381C12.703 14.1634 13.3943 15.2765 14.3089 16.1911C15.2235 17.1057 16.3366 17.797 17.5619 18.2113C18.7871 18.6256 20.0914 18.7518 21.3733 18.58C21.8297 17.6358 22.0701 16.602 22.0773 15.5533V15.4467C22.0646 13.5967 21.3269 11.8254 20.0227 10.5133Z" fill="#020202"/>
</svg>
